<?xml version="1.0" encoding="UTF-8"?>
<svg xmlns="http://www.w3.org/2000/svg" xmlns:xlink="http://www.w3.org/1999/xlink" width="375pt" height="374.999991pt" viewBox="0 0 375 374.999991" version="1.2">
<defs>
<clipPath id="clip1">
  <path d="M 18 21.050781 L 362.273438 21.050781 L 362.273438 356 L 18 356 Z M 18 21.050781 "/>
</clipPath>
</defs>
<g id="surface1">
<g clip-path="url(#clip1)" clip-rule="nonzero">
<path style=" stroke:none;fill-rule:nonzero;fill:rgb(1.959229%,3.919983%,18.818665%);fill-opacity:1;" d="M 190.433594 21.035156 C 95.554688 21.035156 18.640625 97.902344 18.640625 192.734375 C 18.640625 241.878906 39.304688 286.203125 72.417969 317.503906 C 92.285156 336.28125 121.730469 352.027344 157.105469 355.621094 C 99.246094 332.996094 32.867188 265.460938 32.867188 196.394531 C 32.867188 107.769531 110.050781 40.738281 193.832031 40.738281 C 277.617188 40.738281 347.992188 118.816406 347.992188 207.441406 C 347.992188 255.042969 328.394531 297.792969 297.273438 327.183594 C 336.84375 295.726562 362.21875 247.195312 362.21875 192.734375 C 362.21875 97.902344 285.308594 21.035156 190.433594 21.035156 "/>
</g>
<path style=" stroke:none;fill-rule:nonzero;fill:rgb(49.409485%,78.42865%,89.019775%);fill-opacity:1;" d="M 44.589844 207.441406 C 44.589844 118.816406 112.511719 46.964844 196.292969 46.964844 C 280.074219 46.964844 347.992188 118.816406 347.992188 207.441406 C 347.992188 231.109375 343.148438 253.578125 334.449219 273.804688 C 347.972656 249.859375 355.699219 222.203125 355.699219 192.746094 C 355.695312 101.515625 281.703125 27.566406 190.433594 27.5625 C 99.160156 27.566406 21.144531 101.605469 25.164062 192.746094 C 27.582031 247.496094 67.566406 333.566406 164.648438 342 C 179.761719 330.320312 44.589844 256.472656 44.589844 207.441406 "/>
<path style=" stroke:none;fill-rule:nonzero;fill:rgb(0%,0%,100%);fill-opacity:1;" d="M 44.589844 207.441406 C 44.589844 118.816406 112.511719 46.964844 196.292969 46.964844 C 277.695312 46.964844 344.117188 114.792969 347.824219 199.929688 C 347.933594 197.542969 347.992188 195.144531 347.992188 192.734375 C 347.992188 105.757812 277.449219 35.25 190.433594 35.25 C 103.410156 35.25 32.867188 105.757812 32.867188 192.734375 C 32.867188 228.761719 45.824219 263.277344 75.042969 293.714844 C 61.859375 269.925781 44.589844 237.007812 44.589844 207.441406 "/>
<path style=" stroke:none;fill-rule:nonzero;fill:rgb(0%,4.708862%,39.99939%);fill-opacity:1;" d="M 44.589844 207.441406 C 44.589844 118.816406 112.511719 46.964844 196.292969 46.964844 C 252.375 46.964844 301.339844 79.160156 327.597656 127.027344 C 303.070312 75.980469 250.875 40.738281 190.433594 40.738281 C 106.445312 40.738281 38.363281 108.789062 38.363281 192.734375 C 38.363281 214.175781 42.8125 234.570312 50.824219 253.070312 C 46.777344 238.605469 44.589844 223.296875 44.589844 207.441406 "/>
<path style=" stroke:none;fill-rule:nonzero;fill:rgb(0%,4.708862%,39.99939%);fill-opacity:1;" d="M 110.882812 283.261719 C 110.882812 283.261719 196.703125 386.882812 240.730469 327.933594 C 284.757812 268.976562 287.285156 221.664062 254.726562 210.316406 C 222.167969 198.96875 195.839844 221.164062 198.535156 250.390625 C 199.964844 265.910156 181.582031 320.902344 110.882812 283.261719 "/>
<path style=" stroke:none;fill-rule:nonzero;fill:rgb(49.409485%,78.42865%,89.019775%);fill-opacity:1;" d="M 106.074219 334.816406 C 106.074219 334.816406 199.269531 392.988281 268.898438 328.441406 C 324.925781 276.515625 264.925781 237.425781 240.074219 277.65625 C 215.222656 317.890625 177.660156 331.1875 106.074219 334.816406 "/>
<path style=" stroke:none;fill-rule:nonzero;fill:rgb(0%,4.708862%,39.99939%);fill-opacity:1;" d="M 211.796875 255.605469 C 211.796875 255.605469 177.945312 303.335938 119.308594 280.375 C 77.0625 263.835938 31.074219 199.128906 74.960938 102 C 74.960938 102 -12.683594 195.863281 82.847656 289.683594 C 158.320312 363.808594 178.792969 290.828125 211.796875 255.605469 "/>
<path style=" stroke:none;fill-rule:nonzero;fill:rgb(0%,0%,100%);fill-opacity:1;" d="M 90.292969 306.265625 C 90.292969 306.265625 167.699219 368.199219 224.492188 291.734375 C 245.042969 264.0625 208.171875 235.0625 174.542969 295.535156 C 154.851562 330.941406 90.292969 306.265625 90.292969 306.265625 "/>
<path style=" stroke:none;fill-rule:nonzero;fill:rgb(0%,0%,100%);fill-opacity:1;" d="M 186.410156 293.714844 C 186.410156 293.714844 119.472656 338.125 68.144531 264.785156 C 14.453125 188.066406 58.324219 119.144531 68.066406 102.484375 C 68.066406 102.484375 20.121094 165.113281 38.554688 234.792969 C 56.992188 304.472656 157.105469 364.960938 186.410156 293.714844 "/>
<path style=" stroke:none;fill-rule:nonzero;fill:rgb(1.959229%,3.919983%,18.818665%);fill-opacity:1;" d="M 78.5 322.984375 C 78.5 322.984375 137.589844 357.660156 193.847656 330.078125 C 229.335938 312.675781 225.992188 279.882812 250.429688 290.925781 C 279.574219 304.097656 240.003906 346.1875 203.558594 354.507812 C 173.507812 361.367188 111.882812 354.707031 78.5 322.984375 "/>
<path style=" stroke:none;fill-rule:nonzero;fill:rgb(1.959229%,3.919983%,18.818665%);fill-opacity:1;" d="M 168.378906 348.695312 L 248.675781 302.726562 L 193.847656 330.078125 C 193.847656 330.078125 70.949219 370.398438 27.058594 217.820312 C 27.058594 217.820312 20.042969 209.25 27.804688 229.890625 C 35.570312 250.535156 36.707031 306.140625 122.710938 344.550781 C 122.710938 344.550781 137.132812 359.710938 149.992188 346.855469 C 151.785156 345.0625 168.378906 348.695312 168.378906 348.695312 "/>
</g>
</svg>
