<svg width="1920" height="352" viewBox="0 0 1920 352" fill="none" xmlns="http://www.w3.org/2000/svg">
<path d="M0 281.2L40 239.876C80 198.841 160 115.759 240 80.5759C320 44.9592 400 57.2408 480 74.7241C560 92.6408 640 115.759 720 115.976C800 115.759 880 92.6408 960 92.4241C1040 92.6408 1120 115.759 1200 157.3C1280 198.841 1360 257.359 1440 239.876C1520 221.959 1600 128.041 1680 80.5759C1760 33.4 1840 33.4 1920 62.8759C2000 92.6408 2080 151.159 2160 163.224C2240 175 2320 139.6 2400 127.824C2480 115.759 2560 128.041 2640 133.676C2720 139.6 2800 139.6 2880 127.824C2960 115.759 3040 92.6408 3120 74.7241C3200 57.2408 3280 44.9592 3360 86.5C3440 128.041 3520 221.959 3600 257.576C3680 292.759 3760 269.641 3840 245.8C3920 221.959 4000 198.841 4080 198.624C4160 198.841 4240 221.959 4320 222.176C4400 221.959 4480 198.841 4560 210.4C4640 221.959 4720 269.641 4800 239.876C4880 210.4 4960 104.2 5040 98.2759C5120 92.6408 5200 186.559 5280 228.1C5360 269.641 5440 257.359 5520 239.876C5600 221.959 5680 198.841 5720 186.776L5760 175V352H5720C5680 352 5600 352 5520 352C5440 352 5360 352 5280 352C5200 352 5120 352 5040 352C4960 352 4880 352 4800 352C4720 352 4640 352 4560 352C4480 352 4400 352 4320 352C4240 352 4160 352 4080 352C4000 352 3920 352 3840 352C3760 352 3680 352 3600 352C3520 352 3440 352 3360 352C3280 352 3200 352 3120 352C3040 352 2960 352 2880 352C2800 352 2720 352 2640 352C2560 352 2480 352 2400 352C2320 352 2240 352 2160 352C2080 352 2000 352 1920 352C1840 352 1760 352 1680 352C1600 352 1520 352 1440 352C1360 352 1280 352 1200 352C1120 352 1040 352 960 352C880 352 800 352 720 352C640 352 560 352 480 352C400 352 320 352 240 352C160 352 80 352 40 352H0V281.2Z" fill="url(#paint0_linear)"/>
<path opacity="0.9" d="M0 175L40 157.3C80 139.6 160 104.2 240 110.124C320 115.759 400 163.441 480 192.7C560 221.959 640 234.241 720 198.624C800 163.441 880 80.3592 960 45.1759C1040 9.55917 1120 21.8408 1200 57.0241C1280 92.6408 1360 151.159 1440 151.376C1520 151.159 1600 92.6408 1680 98.2759C1760 104.2 1840 175 1920 198.624C2000 221.959 2080 198.841 2160 210.4C2240 221.959 2320 269.641 2400 292.976C2480 316.6 2560 316.6 2640 269.424C2720 221.959 2800 128.041 2880 74.7241C2960 21.8408 3040 9.55917 3120 3.92406C3200 -2.00002 3280 -2.00002 3360 33.4C3440 68.8 3520 139.6 3600 186.776C3680 234.241 3760 257.359 3840 251.724C3920 245.8 4000 210.4 4080 169.076C4160 128.041 4240 80.3592 4320 51.1C4400 21.8408 4480 9.55917 4560 45.1759C4640 80.3592 4720 163.441 4800 163.224C4880 163.441 4960 80.3592 5040 92.4241C5120 104.2 5200 210.4 5280 234.024C5360 257.359 5440 198.841 5520 151.376C5600 104.2 5680 68.8 5720 51.1L5760 33.4V352H5720C5680 352 5600 352 5520 352C5440 352 5360 352 5280 352C5200 352 5120 352 5040 352C4960 352 4880 352 4800 352C4720 352 4640 352 4560 352C4480 352 4400 352 4320 352C4240 352 4160 352 4080 352C4000 352 3920 352 3840 352C3760 352 3680 352 3600 352C3520 352 3440 352 3360 352C3280 352 3200 352 3120 352C3040 352 2960 352 2880 352C2800 352 2720 352 2640 352C2560 352 2480 352 2400 352C2320 352 2240 352 2160 352C2080 352 2000 352 1920 352C1840 352 1760 352 1680 352C1600 352 1520 352 1440 352C1360 352 1280 352 1200 352C1120 352 1040 352 960 352C880 352 800 352 720 352C640 352 560 352 480 352C400 352 320 352 240 352C160 352 80 352 40 352H0V175Z" fill="url(#paint1_linear)"/>
<defs>
<linearGradient id="paint0_linear" x1="0" y1="352" x2="0" y2="42.5948" gradientUnits="userSpaceOnUse">
<stop stop-color="#0000FF"/>
<stop offset="1" stop-color="#0000FF"/>
</linearGradient>
<linearGradient id="paint1_linear" x1="0" y1="352" x2="0" y2="0.983643" gradientUnits="userSpaceOnUse">
<stop stop-color="#7EC8E3"/>
<stop offset="1" stop-color="#7EC8E3"/>
</linearGradient>
</defs>
</svg>
